<?xml version="1.0" encoding="UTF-8"?>
<svg xmlns="http://www.w3.org/2000/svg" width="1920" height="1080" viewBox="0 0 1920 1080" fill="none">
<defs>
<linearGradient id="bg" x1="0" y1="0" x2="1" y2="1"><stop stop-color="#171923"/><stop offset=".55" stop-color="#252630"/><stop offset="1" stop-color="#0b0c11"/></linearGradient>
<filter id="softShadow" x="-30%" y="-30%" width="160%" height="160%">
  <feDropShadow dx="0" dy="10" stdDeviation="10" flood-color="#050509" flood-opacity=".45"/>
</filter>
</defs>

<rect width="1920" height="1080" fill="url(#bg)"/>
<path d="M0 760 C300 680 520 880 840 760 C1140 648 1400 720 1920 590 L1920 1080 L0 1080 Z" fill="#090a0f" fill-opacity=".45"/>
<g opacity=".28"><circle cx="120" cy="120" r="60" fill="none" stroke="#d9a746" stroke-width="2"/><circle cx="240" cy="230" r="84" fill="none" stroke="#d9a746" stroke-width="2"/><circle cx="360" cy="340" r="108" fill="none" stroke="#d9a746" stroke-width="2"/><circle cx="480" cy="450" r="60" fill="none" stroke="#d9a746" stroke-width="2"/><circle cx="600" cy="560" r="84" fill="none" stroke="#d9a746" stroke-width="2"/><circle cx="720" cy="120" r="108" fill="none" stroke="#d9a746" stroke-width="2"/><circle cx="840" cy="230" r="60" fill="none" stroke="#d9a746" stroke-width="2"/><circle cx="960" cy="340" r="84" fill="none" stroke="#d9a746" stroke-width="2"/><circle cx="1080" cy="450" r="108" fill="none" stroke="#d9a746" stroke-width="2"/><circle cx="1200" cy="560" r="60" fill="none" stroke="#d9a746" stroke-width="2"/><circle cx="1320" cy="120" r="84" fill="none" stroke="#d9a746" stroke-width="2"/><circle cx="1440" cy="230" r="108" fill="none" stroke="#d9a746" stroke-width="2"/><circle cx="1560" cy="340" r="60" fill="none" stroke="#d9a746" stroke-width="2"/><circle cx="1680" cy="450" r="84" fill="none" stroke="#d9a746" stroke-width="2"/><circle cx="1800" cy="560" r="108" fill="none" stroke="#d9a746" stroke-width="2"/><circle cx="1920" cy="120" r="60" fill="none" stroke="#d9a746" stroke-width="2"/></g>
<path d="M240 220 L420 160 L520 280 L360 360 Z M1400 220 L1650 190 L1720 360 L1480 410 Z" fill="#d9a746" fill-opacity=".08"/>

</svg>