<?xml version="1.0" encoding="UTF-8"?>
<svg xmlns="http://www.w3.org/2000/svg" width="1024" height="1024" viewBox="0 0 1024 1024" fill="none">
<defs>

<filter id="softShadow" x="-30%" y="-30%" width="160%" height="160%">
  <feDropShadow dx="0" dy="10" stdDeviation="10" flood-color="#050509" flood-opacity=".45"/>
</filter>
</defs>

<rect width="1024" height="1024" fill="#22222a"/>
<g opacity=".12"><path d="M0 0 L240 1024" stroke="#ffffff" stroke-width="2"/><path d="M97 0 L337 1024" stroke="#d9a746" stroke-width="2"/><path d="M194 0 L434 1024" stroke="#ffffff" stroke-width="2"/><path d="M291 0 L531 1024" stroke="#d9a746" stroke-width="2"/><path d="M388 0 L628 1024" stroke="#ffffff" stroke-width="2"/><path d="M485 0 L725 1024" stroke="#d9a746" stroke-width="2"/><path d="M582 0 L822 1024" stroke="#ffffff" stroke-width="2"/><path d="M679 0 L919 1024" stroke="#d9a746" stroke-width="2"/><path d="M776 0 L1016 1024" stroke="#ffffff" stroke-width="2"/><path d="M873 0 L1113 1024" stroke="#d9a746" stroke-width="2"/><path d="M970 0 L1210 1024" stroke="#ffffff" stroke-width="2"/><path d="M43 0 L283 1024" stroke="#d9a746" stroke-width="2"/><path d="M140 0 L380 1024" stroke="#ffffff" stroke-width="2"/><path d="M237 0 L477 1024" stroke="#d9a746" stroke-width="2"/><path d="M334 0 L574 1024" stroke="#ffffff" stroke-width="2"/><path d="M431 0 L671 1024" stroke="#d9a746" stroke-width="2"/><path d="M528 0 L768 1024" stroke="#ffffff" stroke-width="2"/><path d="M625 0 L865 1024" stroke="#d9a746" stroke-width="2"/><path d="M722 0 L962 1024" stroke="#ffffff" stroke-width="2"/><path d="M819 0 L1059 1024" stroke="#d9a746" stroke-width="2"/><path d="M916 0 L1156 1024" stroke="#ffffff" stroke-width="2"/><path d="M1013 0 L1253 1024" stroke="#d9a746" stroke-width="2"/><path d="M86 0 L326 1024" stroke="#ffffff" stroke-width="2"/><path d="M183 0 L423 1024" stroke="#d9a746" stroke-width="2"/><path d="M280 0 L520 1024" stroke="#ffffff" stroke-width="2"/><path d="M377 0 L617 1024" stroke="#d9a746" stroke-width="2"/><path d="M474 0 L714 1024" stroke="#ffffff" stroke-width="2"/><path d="M571 0 L811 1024" stroke="#d9a746" stroke-width="2"/><path d="M668 0 L908 1024" stroke="#ffffff" stroke-width="2"/><path d="M765 0 L1005 1024" stroke="#d9a746" stroke-width="2"/><path d="M862 0 L1102 1024" stroke="#ffffff" stroke-width="2"/><path d="M959 0 L1199 1024" stroke="#d9a746" stroke-width="2"/><path d="M32 0 L272 1024" stroke="#ffffff" stroke-width="2"/><path d="M129 0 L369 1024" stroke="#d9a746" stroke-width="2"/><path d="M226 0 L466 1024" stroke="#ffffff" stroke-width="2"/><path d="M323 0 L563 1024" stroke="#d9a746" stroke-width="2"/><path d="M420 0 L660 1024" stroke="#ffffff" stroke-width="2"/><path d="M517 0 L757 1024" stroke="#d9a746" stroke-width="2"/><path d="M614 0 L854 1024" stroke="#ffffff" stroke-width="2"/><path d="M711 0 L951 1024" stroke="#d9a746" stroke-width="2"/><path d="M808 0 L1048 1024" stroke="#ffffff" stroke-width="2"/><path d="M905 0 L1145 1024" stroke="#d9a746" stroke-width="2"/><path d="M1002 0 L1242 1024" stroke="#ffffff" stroke-width="2"/><path d="M75 0 L315 1024" stroke="#d9a746" stroke-width="2"/><path d="M172 0 L412 1024" stroke="#ffffff" stroke-width="2"/><path d="M269 0 L509 1024" stroke="#d9a746" stroke-width="2"/><path d="M366 0 L606 1024" stroke="#ffffff" stroke-width="2"/><path d="M463 0 L703 1024" stroke="#d9a746" stroke-width="2"/><path d="M560 0 L800 1024" stroke="#ffffff" stroke-width="2"/><path d="M657 0 L897 1024" stroke="#d9a746" stroke-width="2"/><path d="M754 0 L994 1024" stroke="#ffffff" stroke-width="2"/><path d="M851 0 L1091 1024" stroke="#d9a746" stroke-width="2"/><path d="M948 0 L1188 1024" stroke="#ffffff" stroke-width="2"/><path d="M21 0 L261 1024" stroke="#d9a746" stroke-width="2"/><path d="M118 0 L358 1024" stroke="#ffffff" stroke-width="2"/><path d="M215 0 L455 1024" stroke="#d9a746" stroke-width="2"/><path d="M312 0 L552 1024" stroke="#ffffff" stroke-width="2"/><path d="M409 0 L649 1024" stroke="#d9a746" stroke-width="2"/><path d="M506 0 L746 1024" stroke="#ffffff" stroke-width="2"/><path d="M603 0 L843 1024" stroke="#d9a746" stroke-width="2"/><path d="M700 0 L940 1024" stroke="#ffffff" stroke-width="2"/><path d="M797 0 L1037 1024" stroke="#d9a746" stroke-width="2"/><path d="M894 0 L1134 1024" stroke="#ffffff" stroke-width="2"/><path d="M991 0 L1231 1024" stroke="#d9a746" stroke-width="2"/><path d="M64 0 L304 1024" stroke="#ffffff" stroke-width="2"/><path d="M161 0 L401 1024" stroke="#d9a746" stroke-width="2"/><path d="M258 0 L498 1024" stroke="#ffffff" stroke-width="2"/><path d="M355 0 L595 1024" stroke="#d9a746" stroke-width="2"/><path d="M452 0 L692 1024" stroke="#ffffff" stroke-width="2"/><path d="M549 0 L789 1024" stroke="#d9a746" stroke-width="2"/><path d="M646 0 L886 1024" stroke="#ffffff" stroke-width="2"/><path d="M743 0 L983 1024" stroke="#d9a746" stroke-width="2"/><path d="M840 0 L1080 1024" stroke="#ffffff" stroke-width="2"/><path d="M937 0 L1177 1024" stroke="#d9a746" stroke-width="2"/><path d="M10 0 L250 1024" stroke="#ffffff" stroke-width="2"/><path d="M107 0 L347 1024" stroke="#d9a746" stroke-width="2"/><path d="M204 0 L444 1024" stroke="#ffffff" stroke-width="2"/><path d="M301 0 L541 1024" stroke="#d9a746" stroke-width="2"/><path d="M398 0 L638 1024" stroke="#ffffff" stroke-width="2"/><path d="M495 0 L735 1024" stroke="#d9a746" stroke-width="2"/></g>

</svg>