<?xml version="1.0" encoding="UTF-8"?>
<svg xmlns="http://www.w3.org/2000/svg" width="960" height="260" viewBox="0 0 960 260" fill="none">
<defs>
<linearGradient id="scene" x1="0" y1="0" x2="1" y2="1"><stop stop-color="#1f2a37"/><stop offset=".54" stop-color="#23232e"/><stop offset="1" stop-color="#4a3d6d"/></linearGradient>
<filter id="softShadow" x="-30%" y="-30%" width="160%" height="160%">
  <feDropShadow dx="0" dy="10" stdDeviation="10" flood-color="#050509" flood-opacity=".45"/>
</filter>
</defs>

<rect width="960" height="260" rx="34" fill="#12131a"/>
<rect x="8" y="8" width="944" height="244" rx="28" fill="url(#scene)" stroke="#d9a746" stroke-opacity=".32" stroke-width="3"/>
<path d="M0 200 C160 148 260 240 420 182 C590 122 730 162 960 88 V260 H0 Z" fill="#1f2a37" fill-opacity=".16"/>
<path d="M56 44 H904" stroke="#f1d17a" stroke-opacity=".2" stroke-width="3" stroke-dasharray="14 16"/>
<circle cx="768" cy="112" r="76" fill="#4a3d6d" fill-opacity=".18" stroke="#4a3d6d" stroke-opacity=".45" stroke-width="6"/>
<text x="768" y="142" text-anchor="middle" font-family="Georgia, serif" font-size="88" font-weight="800" fill="#fff2c7" opacity=".9">A</text>

<path d="M114 200 L230 68 L346 200 Z" fill="#67a6d9" fill-opacity=".18" stroke="#67a6d9" stroke-width="6"/>
<path d="M118 200 H500" stroke="#d9a746" stroke-opacity=".45" stroke-width="6"/>
<rect x="384" y="86" width="92" height="122" rx="15" fill="#efe4d5" stroke="#d9a746" stroke-width="5"/>
<path d="M430 112 L464 172 H396 Z" fill="#b9414b" fill-opacity=".75"/>


</svg>