<?xml version="1.0" encoding="UTF-8"?>
<svg xmlns="http://www.w3.org/2000/svg" width="960" height="260" viewBox="0 0 960 260" fill="none">
<defs>
<linearGradient id="scene" x1="0" y1="0" x2="1" y2="1"><stop stop-color="#252234"/><stop offset=".54" stop-color="#23232e"/><stop offset="1" stop-color="#876e39"/></linearGradient>
<filter id="softShadow" x="-30%" y="-30%" width="160%" height="160%">
  <feDropShadow dx="0" dy="10" stdDeviation="10" flood-color="#050509" flood-opacity=".45"/>
</filter>
</defs>

<rect width="960" height="260" rx="34" fill="#12131a"/>
<rect x="8" y="8" width="944" height="244" rx="28" fill="url(#scene)" stroke="#d9a746" stroke-opacity=".32" stroke-width="3"/>
<path d="M0 200 C160 148 260 240 420 182 C590 122 730 162 960 88 V260 H0 Z" fill="#252234" fill-opacity=".16"/>
<path d="M56 44 H904" stroke="#f1d17a" stroke-opacity=".2" stroke-width="3" stroke-dasharray="14 16"/>
<circle cx="768" cy="112" r="76" fill="#876e39" fill-opacity=".18" stroke="#876e39" stroke-opacity=".45" stroke-width="6"/>
<text x="768" y="142" text-anchor="middle" font-family="Georgia, serif" font-size="88" font-weight="800" fill="#fff2c7" opacity=".9">?</text>

<path d="M116 176 H468 L508 226 H78 Z" fill="#171820" stroke="#d9a746" stroke-opacity=".55" stroke-width="5"/>
<rect x="158" y="84" width="86" height="124" rx="12" fill="#efe4d5" stroke="#d9a746" stroke-width="4" transform="rotate(-8 201 146)"/>
<rect x="250" y="74" width="86" height="124" rx="12" fill="#efe4d5" stroke="#b9414b" stroke-width="4" transform="rotate(5 293 136)"/>
<rect x="342" y="88" width="86" height="124" rx="12" fill="#efe4d5" stroke="#67a6d9" stroke-width="4" transform="rotate(12 385 150)"/>


</svg>