<?xml version="1.0" encoding="UTF-8"?>
<svg xmlns="http://www.w3.org/2000/svg" width="960" height="260" viewBox="0 0 960 260" fill="none">
<defs>
<linearGradient id="scene" x1="0" y1="0" x2="1" y2="1"><stop stop-color="#1f2c27"/><stop offset=".54" stop-color="#23232e"/><stop offset="1" stop-color="#6d5434"/></linearGradient>
<filter id="softShadow" x="-30%" y="-30%" width="160%" height="160%">
  <feDropShadow dx="0" dy="10" stdDeviation="10" flood-color="#050509" flood-opacity=".45"/>
</filter>
</defs>

<rect width="960" height="260" rx="34" fill="#12131a"/>
<rect x="8" y="8" width="944" height="244" rx="28" fill="url(#scene)" stroke="#d9a746" stroke-opacity=".32" stroke-width="3"/>
<path d="M0 200 C160 148 260 240 420 182 C590 122 730 162 960 88 V260 H0 Z" fill="#1f2c27" fill-opacity=".16"/>
<path d="M56 44 H904" stroke="#f1d17a" stroke-opacity=".2" stroke-width="3" stroke-dasharray="14 16"/>
<circle cx="768" cy="112" r="76" fill="#6d5434" fill-opacity=".18" stroke="#6d5434" stroke-opacity=".45" stroke-width="6"/>
<text x="768" y="142" text-anchor="middle" font-family="Georgia, serif" font-size="88" font-weight="800" fill="#fff2c7" opacity=".9">$</text>

<path d="M92 164 H514 L554 224 H52 Z" fill="#171820" stroke="#7fbc77" stroke-opacity=".55" stroke-width="5"/>
<rect x="130" y="74" width="104" height="92" rx="14" fill="#d9a746" fill-opacity=".18" stroke="#f1d17a" stroke-width="5"/>
<rect x="270" y="92" width="78" height="78" rx="18" fill="#9a78d3" fill-opacity=".2" stroke="#9a78d3" stroke-width="5"/>
<path d="M408 82 H482 L498 168 H392 Z" fill="#67a6d9" fill-opacity=".18" stroke="#67a6d9" stroke-width="5"/>


</svg>